<?xml version="1.0" standalone="no"?>
<!DOCTYPE svg PUBLIC "-//W3C//DTD SVG 20010904//EN"
 "http://www.w3.org/TR/2001/REC-SVG-20010904/DTD/svg10.dtd">
<svg version="1.0" xmlns="http://www.w3.org/2000/svg"
 width="1200.000000pt" height="1200.000000pt" viewBox="0 0 1200.000000 1200.000000"
 preserveAspectRatio="xMidYMid meet">

<g transform="translate(0.000000,1200.000000) scale(0.100000,-0.100000)"
fill="#000000" stroke="none">
<path d="M5735 10249 c-631 -38 -1286 -233 -1832 -547 -682 -391 -1214 -923
-1605 -1605 -394 -686 -592 -1519 -549 -2304 59 -1062 477 -2017 1210 -2767
664 -679 1503 -1104 2451 -1240 1054 -152 2164 115 3030 727 892 632 1496
1545 1724 2607 192 893 79 1864 -315 2699 -284 603 -749 1173 -1282 1574 -686
516 -1478 807 -2331 857 -198 11 -295 11 -501 -1z m460 -339 c808 -43 1535
-311 2184 -803 261 -198 532 -469 729 -728 492 -652 759 -1378 802 -2187 54
-1017 -304 -2028 -990 -2797 -333 -373 -714 -665 -1165 -893 -602 -304 -1279
-447 -1947 -412 -810 43 -1535 309 -2187 802 -259 197 -530 468 -728 729 -493
650 -760 1377 -803 2186 -44 823 187 1663 643 2347 200 299 403 535 662 766
660 589 1509 942 2380 989 220 12 214 12 420 1z"/>
<path d="M6135 8391 c-243 -41 -435 -109 -624 -223 -352 -212 -583 -505 -710
-901 -54 -170 -66 -258 -66 -492 1 -197 2 -217 29 -320 45 -174 109 -300 218
-427 152 -176 324 -269 808 -438 129 -46 273 -102 320 -125 157 -79 253 -167
297 -275 25 -63 26 -287 0 -380 -56 -207 -188 -338 -395 -391 -97 -25 -300
-26 -405 -3 -132 29 -291 116 -491 267 -43 33 -103 72 -135 88 -104 53 -228
34 -325 -52 -21 -18 -126 -147 -233 -286 l-195 -254 44 -47 c121 -132 298
-262 480 -353 351 -176 730 -252 1103 -220 265 23 452 73 670 180 345 170 598
421 761 756 101 209 154 409 174 655 25 307 -25 546 -158 755 -51 78 -171 202
-259 264 -121 87 -362 202 -648 311 -323 123 -438 183 -536 280 -84 83 -104
123 -115 235 -8 79 17 208 57 292 54 113 172 209 319 259 80 28 370 28 450 0
93 -31 229 -101 355 -181 134 -84 203 -110 268 -100 108 18 148 56 371 358
l168 227 -39 43 c-235 254 -511 402 -913 489 -139 30 -490 35 -645 9z"/>
</g>
</svg>
